<svg width="96" height="32" viewBox="0 0 96 32" fill="none" xmlns="http://www.w3.org/2000/svg">
<path d="M0.649227 18.6215C-0.602946 10.1186 5.28691 2.21003 13.8666 0.97574C22.4463 -0.30426 30.4231 5.54717 31.7217 14.05C33.0202 22.5529 27.084 30.4614 18.5043 31.6957C9.92459 32.9757 1.9014 27.1243 0.649227 18.6215Z" fill="#ED1C24"/>
<path d="M11.9649 15.9699C12.2896 15.9699 12.5678 15.8785 12.7533 15.6956C12.9389 15.5128 13.0316 15.2842 13.0316 14.9642C13.0316 14.6442 12.9389 14.4156 12.7533 14.2328C12.5678 14.0499 12.2896 13.9585 11.9649 13.9585H10.8983V15.9699H11.9649ZM9.59972 12.8613H11.9186C12.3823 12.8613 12.7533 12.907 13.0316 13.0442C13.3562 13.1813 13.5881 13.3642 13.7736 13.547C13.9591 13.7756 14.0983 13.9585 14.191 14.2328C14.2838 14.4613 14.3302 14.6899 14.3302 14.9185C14.3302 15.3756 14.2374 15.7413 14.0519 16.0613C13.8664 16.3813 13.5417 16.6556 13.1707 16.8842L14.7939 19.8099H13.3099L11.8722 17.067H10.8519V19.8099H9.55334V12.8613H9.59972Z" fill="white"/>
<path d="M16.0461 12.8613H17.2982L19.2461 16.1528L21.1939 12.8613H22.3997L22.7707 19.8099H21.4722L21.2403 15.0099L19.5243 17.8442H18.9214L17.2055 15.0556L16.9736 19.8099H15.7214L16.0461 12.8613Z" fill="white"/>
<path d="M17.6693 26.3928C16.3708 26.9871 14.8867 27.1242 13.4954 26.8957C13.1244 26.85 12.7998 26.7585 12.4288 26.6671C12.1041 26.5757 11.7331 26.4385 11.4085 26.3014C11.0838 26.1642 10.7592 25.9814 10.4346 25.7985C10.1099 25.6157 9.83165 25.3871 9.50702 25.2042L8.62586 24.5642C8.39397 24.29 8.11571 24.0614 7.88383 23.7871C7.65194 23.5128 7.46644 23.1928 7.23455 22.9185C7.04905 22.5985 6.86354 22.2785 6.72441 21.9585C6.12151 20.6785 5.79687 19.2157 5.98238 17.8442H6.07513C6.30702 19.1242 6.77078 20.4042 7.46644 21.5471C8.16209 22.69 9.08962 23.65 10.1563 24.4271C11.223 25.2042 12.4288 25.7985 13.7273 26.1185C15.0259 26.4385 16.3708 26.53 17.6693 26.3928Z" fill="white"/>
<path d="M14.655 6.2785C15.9536 5.68422 17.4376 5.54708 18.8289 5.77565C19.1999 5.82136 19.5246 5.91279 19.8956 6.00422C20.2666 6.09565 20.5913 6.23279 20.9159 6.36993C21.2405 6.50708 21.5652 6.68993 21.8898 6.87279C22.2144 7.05565 22.4927 7.28422 22.8173 7.46708L23.6521 8.1985C23.884 8.47279 24.1623 8.70136 24.3942 8.97565C24.626 9.24993 24.8115 9.56993 25.0434 9.84422C25.2289 10.1642 25.4144 10.4842 25.5536 10.8042C26.1565 12.0842 26.4811 13.5471 26.2956 14.9185H26.2029C25.971 13.6385 25.5072 12.3585 24.8115 11.2156C24.1159 10.0728 23.1884 9.11279 22.1217 8.33565C21.055 7.5585 19.8492 6.96422 18.5507 6.64422C17.2521 6.32422 15.9072 6.23279 14.6086 6.41565L14.655 6.2785Z" fill="white"/>
<path d="M40.5515 9.66405V12.8001H38.4329V3.84005C38.936 3.84005 39.4922 3.83579 40.1013 3.82725C40.7104 3.81872 41.2047 3.81445 41.5843 3.81445C43.8707 3.81445 45.0138 4.77019 45.0138 6.68165C45.0138 7.91045 44.493 8.77232 43.4513 9.26725L46.1526 12.8001H43.5838L41.3327 9.66405H40.5515ZM41.4784 5.73445C41.4696 5.73445 41.4298 5.73872 41.3592 5.74725C41.2886 5.74725 41.1782 5.75152 41.0282 5.76005C40.8781 5.76005 40.7192 5.76005 40.5515 5.76005V7.74405H41.3195C42.2817 7.74405 42.7628 7.39845 42.7628 6.70725C42.7628 6.05872 42.3347 5.73445 41.4784 5.73445Z" fill="black"/>
<path d="M53.3672 12.8001H47.7396V3.84005H53.2348V5.76005H49.8582V7.33445H52.8375V9.25445H49.8582V10.8801H53.3672V12.8001Z" fill="black"/>
<path d="M57.8718 12.8001H55.7532V3.84005H57.8851L60.7452 7.61605L63.4465 3.84005H65.4459V12.8001H63.3273V7.09125L60.7452 10.5857H60.4407L57.8718 7.12965V12.8001Z" fill="black"/>
<path d="M69.1682 12.8001H67.0363L70.8896 3.84005H72.7831L76.6363 12.8001H74.372L73.604 10.9185H69.9362L69.1682 12.8001ZM72.8096 8.99845L71.7767 6.46405L70.7307 8.99845H72.8096Z" fill="black"/>
<path d="M80.3387 12.8001H78.2201V3.84005H80.3387V7.74405L83.371 3.84005H85.9134L82.4309 7.97445L86.1914 12.8001H83.5034L80.3387 8.53765V12.8001Z" fill="black"/>
<path d="M93.413 12.8001H87.7855V3.84005H93.2806V5.76005H89.9041V7.33445H92.8834V9.25445H89.9041V10.8801H93.413V12.8001Z" fill="black"/>
<path d="M46.0467 27.2001H43.928V23.5905H40.5515V27.2001H38.4329V18.2401H40.5515V21.6705H43.928V18.2401H46.0467V27.2001Z" fill="black"/>
<path d="M48.1637 22.7201C48.1637 21.3974 48.6183 20.2966 49.5276 19.4177C50.4457 18.5302 51.633 18.0865 53.0895 18.0865C54.5372 18.0865 55.7157 18.5089 56.625 19.3537C57.5519 20.1985 58.0153 21.3206 58.0153 22.7201C58.0153 24.0683 57.5474 25.1777 56.6117 26.0481C55.6848 26.9185 54.5108 27.3537 53.0895 27.3537C51.6506 27.3537 50.4677 26.9313 49.5408 26.0865C48.6228 25.2417 48.1637 24.1195 48.1637 22.7201ZM50.4148 22.7201C50.4148 23.4795 50.6752 24.1238 51.196 24.6529C51.708 25.1734 52.3392 25.4337 53.0895 25.4337C53.937 25.4337 54.5946 25.1819 55.0625 24.6785C55.5303 24.1579 55.7643 23.5051 55.7643 22.7201C55.7643 21.9094 55.5083 21.2566 54.9963 20.7617C54.4754 20.2582 53.8399 20.0065 53.0895 20.0065C52.3127 20.0065 51.6727 20.2582 51.1695 20.7617C50.6663 21.2651 50.4148 21.9179 50.4148 22.7201Z" fill="black"/>
<path d="M62.2555 27.2001H60.1368V18.2401H62.2687L65.1288 22.0161L67.8301 18.2401H69.8295V27.2001H67.7109V21.4913L65.1288 24.9857H64.8243L62.2555 21.5297V27.2001Z" fill="black"/>
<path d="M78.2393 27.2001H72.6117V18.2401H78.1068V20.1601H74.7303V21.7345H77.7096V23.6545H74.7303V25.2801H78.2393V27.2001Z" fill="black"/>
</svg>
