<svg width="25" height="22" viewBox="0 0 25 22" fill="#fff" xmlns="http://www.w3.org/2000/svg">
<path d="M12.7847 6.34317C12.7847 3.61335 10.3259 1.40039 7.29275 1.40039C4.25962 1.40039 1.80078 3.61335 1.80078 6.34317C1.80078 11.2859 3.99757 14.01 12.7847 20.6003" stroke="#282724" stroke-width="1.8" stroke-linecap="round" stroke-linejoin="round"/>
<path d="M12.7856 6.34317C12.7856 3.61335 15.2444 1.40039 18.2776 1.40039C21.3107 1.40039 23.7695 3.61335 23.7695 6.34317C23.7695 9.10113 23.0856 10.0185 20.9544 12.9116C20.643 13.3343 20.3007 13.7635 19.9252 14.2008C19.0008 15.2771 16.563 17.5578 16.0808 17.9711C15.1019 18.81 14.0075 19.6839 12.7856 20.6003" stroke="#282724" stroke-width="1.8" stroke-linecap="round" stroke-linejoin="round"/>
</svg>
