<svg width="22" height="14" viewBox="0 0 22 14" fill="none" xmlns="http://www.w3.org/2000/svg">
<path d="M10.8174 9.00588C11.9203 9.00588 12.8145 8.11175 12.8145 7.0088C12.8145 5.90584 11.9203 5.01172 10.8174 5.01172C9.71444 5.01172 8.82031 5.90584 8.82031 7.0088C8.82031 8.11175 9.71444 9.00588 10.8174 9.00588Z" stroke="#A7A8B3" stroke-width="1.5" stroke-linecap="round" stroke-linejoin="round"/>
<path d="M0.832031 7.00879L2.32984 9.00587C3.36021 10.2602 4.6558 11.2706 6.1234 11.9644C7.59101 12.6581 9.19413 13.0179 10.8174 13.0179C12.4407 13.0179 14.0438 12.6581 15.5114 11.9644C16.979 11.2706 18.2746 10.2602 19.305 9.00587L20.8028 7.00879" stroke="#A7A8B3" stroke-width="1.5" stroke-linecap="round" stroke-linejoin="round"/>
<path d="M0.832031 7.00909L2.32984 5.01201C3.36021 3.75764 4.6558 2.74725 6.1234 2.05353C7.59101 1.3598 9.19413 1 10.8174 1C12.4407 1 14.0438 1.3598 15.5114 2.05353C16.979 2.74725 18.2746 3.75764 19.305 5.01201L20.8028 7.00909" stroke="#A7A8B3" stroke-width="1.5" stroke-linecap="round" stroke-linejoin="round"/>
</svg>
