<svg width="6" height="8" viewBox="0 0 6 8" fill="none" xmlns="http://www.w3.org/2000/svg">
<path d="M2.71152 1.01085C2.79435 0.720618 3.20566 0.720618 3.28848 1.01085L3.68423 2.39755C3.72866 2.55323 3.88861 2.64558 4.04565 2.60621L5.44444 2.25559C5.7372 2.18221 5.94286 2.53841 5.73292 2.75526L4.72988 3.79133C4.61727 3.90765 4.61727 4.09235 4.72988 4.20867L5.73292 5.24474C5.94286 5.46159 5.7372 5.81779 5.44444 5.74441L4.04565 5.39379C3.88861 5.35442 3.72866 5.44677 3.68423 5.60245L3.28848 6.98915C3.20565 7.27938 2.79435 7.27938 2.71152 6.98915L2.31577 5.60245C2.27134 5.44677 2.11139 5.35442 1.95435 5.39379L0.555558 5.74441C0.262799 5.81779 0.0571449 5.46159 0.267076 5.24474L1.27012 4.20867C1.38273 4.09235 1.38273 3.90765 1.27012 3.79133L0.267076 2.75526C0.0571445 2.53841 0.2628 2.18221 0.555558 2.25559L1.95435 2.60621C2.11139 2.64558 2.27134 2.55323 2.31577 2.39755L2.71152 1.01085Z" fill="#ED1C24"/>
</svg>
