<svg width="8" height="16" viewBox="0 0 8 16" fill="none" xmlns="http://www.w3.org/2000/svg">
<path d="M6.86474 0.00206365C7.12953 0.00154297 7.38614 0.0943365 7.59003 0.264338C7.70478 0.360067 7.79964 0.477638 7.86917 0.610311C7.9387 0.742986 7.98153 0.888157 7.99522 1.03751C8.0089 1.18687 7.99317 1.33748 7.94892 1.4807C7.90467 1.62393 7.83278 1.75697 7.73736 1.8722L2.66033 7.98436L7.55603 14.1079C7.65017 14.2246 7.72047 14.3588 7.76289 14.5028C7.80531 14.6469 7.81901 14.798 7.80321 14.9474C7.78742 15.0968 7.74243 15.2416 7.67084 15.3735C7.59925 15.5054 7.50246 15.6217 7.38604 15.7158C7.26879 15.8196 7.13147 15.8979 6.98272 15.9458C6.83396 15.9937 6.67698 16.0101 6.52162 15.994C6.36625 15.978 6.21587 15.9298 6.0799 15.8524C5.94392 15.7751 5.8253 15.6704 5.73147 15.5447L0.257803 8.70277C0.0911199 8.49873 -1.22919e-06 8.24279 -1.2061e-06 7.97866C-1.18301e-06 7.71453 0.09112 7.45859 0.257803 7.25455L5.92413 0.412582C6.03782 0.274583 6.18223 0.165494 6.34566 0.0941685C6.50909 0.0228423 6.68693 -0.00871288 6.86474 0.00206365Z" fill="white"/>
</svg>
