<svg width="24" height="15" viewBox="0 0 24 15" fill="none" xmlns="http://www.w3.org/2000/svg">
<path d="M11.1476 2.60959L4.73588 1.44381C2.89435 1.10899 1.19922 2.52371 1.19922 4.39542V7.70078V11.0061C1.19922 12.8779 2.89435 14.2926 4.73587 13.9578L11.1476 12.792C11.7391 12.6844 12.3451 12.6844 12.9365 12.792L19.3483 13.9578C21.1898 14.2926 22.8849 12.8779 22.8849 11.0061V7.70078V4.39542C22.8849 2.52371 21.1898 1.10899 19.3483 1.44381L17.4635 1.7865L16.1081 2.03292L12.9365 2.60959C12.3451 2.71712 11.7391 2.71712 11.1476 2.60959Z" stroke="#282724" stroke-width="1.6" stroke-linecap="round" stroke-linejoin="round"/>
<ellipse cx="7.01605" cy="7.60199" rx="0.887143" ry="0.887144" fill="#282724"/>
<ellipse cx="14.9028" cy="7.60199" rx="0.887143" ry="0.887144" fill="#282724"/>
<ellipse cx="10.9575" cy="9.57464" rx="0.887142" ry="0.887143" fill="#282724"/>
<ellipse cx="10.9575" cy="5.63128" rx="0.887142" ry="0.887144" fill="#282724"/>
<ellipse cx="19.8285" cy="7.60199" rx="0.887142" ry="0.887144" fill="#282724"/>
<ellipse cx="17.8598" cy="4.64496" rx="0.887144" ry="0.887143" fill="#282724"/>
<ellipse cx="5.04339" cy="4.64496" rx="0.887143" ry="0.887143" fill="#282724"/>
<ellipse cx="5.04339" cy="10.559" rx="0.887143" ry="0.887143" fill="#282724"/>
<ellipse cx="17.8598" cy="10.559" rx="0.887144" ry="0.887143" fill="#282724"/>
</svg>
