<svg width="40" height="40" viewBox="0 0 40 40" fill="none" xmlns="http://www.w3.org/2000/svg">
<path d="M0.213609 22.9425C-1.38058 11.9963 6.118 1.81515 17.0411 0.226177C27.9642 -1.42164 38.1198 6.11124 39.773 17.0575C41.4263 28.0037 33.8686 38.1849 22.9455 39.7738C12.0224 41.4216 1.80779 33.8888 0.213609 22.9425Z" fill="#ED1C24"/>
<path d="M14.6211 19.5292C15.0344 19.5292 15.3886 19.4115 15.6248 19.1761C15.861 18.9407 15.9791 18.6464 15.9791 18.2345C15.9791 17.8225 15.861 17.5283 15.6248 17.2929C15.3886 17.0575 15.0344 16.9398 14.6211 16.9398H13.2631V19.5292H14.6211ZM11.6098 15.5273H14.562C15.1525 15.5273 15.6248 15.5862 15.9791 15.7627C16.3924 15.9393 16.6876 16.1747 16.9238 16.4101C17.16 16.7044 17.3371 16.9398 17.4552 17.2929C17.5733 17.5871 17.6323 17.8814 17.6323 18.1756C17.6323 18.7641 17.5142 19.2349 17.278 19.6469C17.0419 20.0588 16.6286 20.4119 16.1562 20.7062L18.2227 24.4726H16.3333L14.503 20.9416H13.204V24.4726H11.5508V15.5273H11.6098Z" fill="white"/>
<path d="M19.8156 15.5273H21.4098L23.8897 19.7646L26.3695 15.5273H27.9047L28.377 24.4726H26.7238L26.4286 18.2933L24.2439 21.9421H23.4764L21.2917 18.3522L20.9965 24.4726H19.4023L19.8156 15.5273Z" fill="white"/>
<path d="M21.8829 32.9465C20.2296 33.7115 18.3402 33.8881 16.5689 33.5938C16.0966 33.535 15.6833 33.4173 15.2109 33.2996C14.7976 33.1819 14.3253 33.0053 13.9119 32.8288C13.4986 32.6522 13.0853 32.4168 12.672 32.1814C12.2587 31.946 11.9045 31.6518 11.4911 31.4164L10.3693 30.5925C10.0741 30.2394 9.71983 29.9451 9.42461 29.592C9.12939 29.2389 8.89321 28.8269 8.59799 28.4738C8.36182 28.0619 8.12564 27.6499 7.94851 27.238C7.18094 25.5901 6.76763 23.7069 7.00381 21.9414H7.12189C7.41711 23.5892 8.00755 25.237 8.89321 26.7083C9.77887 28.1796 10.9597 29.4154 12.3178 30.4159C13.6758 31.4164 15.2109 32.1814 16.8641 32.5934C18.5174 33.0053 20.2296 33.123 21.8829 32.9465Z" fill="white"/>
<path d="M18.0434 7.05338C19.6966 6.28832 21.5861 6.11177 23.3574 6.40602C23.8297 6.46487 24.243 6.58257 24.7154 6.70027C25.1877 6.81797 25.601 6.99453 26.0143 7.17108C26.4277 7.34763 26.841 7.58303 27.2543 7.81844C27.6676 8.05384 28.0218 8.34809 28.4351 8.58349L29.4979 9.5251C29.7932 9.87821 30.1474 10.1725 30.4426 10.5256C30.7379 10.8787 30.974 11.2906 31.2693 11.6437C31.5054 12.0557 31.7416 12.4676 31.9187 12.8796C32.6863 14.5274 33.0996 16.4106 32.8634 18.1762H32.7454C32.4501 16.5283 31.8597 14.8805 30.974 13.4092C30.0884 11.938 28.9075 10.7021 27.5495 9.70166C26.1915 8.7012 24.6563 7.93614 23.0031 7.52418C21.3499 7.11223 19.6376 6.99453 17.9844 7.22993L18.0434 7.05338Z" fill="white"/>
</svg>
