<svg width="50" height="50" viewBox="0 0 50 50" fill="none" xmlns="http://www.w3.org/2000/svg">
<path fill-rule="evenodd" clip-rule="evenodd" d="M0.268275 28.6738C-1.72925 15.0039 7.6406 2.27809 21.2938 0.287122C34.947 -1.76542 47.6324 7.63523 49.7123 21.3257C51.7716 35.0162 42.3399 47.742 28.6867 49.7124C15.0335 51.7855 2.2658 42.3643 0.268275 28.6738Z" fill="#E3000F"/>
<path d="M38.015 32.3701L37.9944 22.6205L33.155 30.687H31.9195L27.0595 22.7437V32.3701H24.4442V17.6328H26.7094L32.5784 27.3824L38.3445 17.6328H40.6097L40.6303 32.3496H38.015V32.3701ZM18.987 22.8873C18.987 21.9432 18.6781 21.2248 18.0603 20.7116C17.4425 20.1985 16.5364 19.9522 15.342 19.9522H12.1295V25.8225H15.342C16.5364 25.8225 17.4425 25.5762 18.0603 25.063C18.6781 24.5499 18.987 23.811 18.987 22.8873ZM19.0488 32.3701L16.0422 28.0597C15.9186 28.0803 15.7333 28.0803 15.4656 28.0803H12.1295V32.3701H9.39062V17.6328H15.4656C16.7424 17.6328 17.8544 17.8381 18.8017 18.2691C19.7489 18.6796 20.4697 19.2954 20.9845 20.0753C21.4994 20.8553 21.7465 21.7995 21.7465 22.8668C21.7465 23.9752 21.4788 24.9193 20.9433 25.7198C20.4079 26.5203 19.6254 27.1156 18.6163 27.5056L22.0142 32.3496H19.0488V32.3701Z" fill="white"/>
</svg>
