<svg width="40" height="41" viewBox="0 0 40 41" fill="none" xmlns="http://www.w3.org/2000/svg">
<g filter="url(#filter0_d)">
<path d="M18.5993 6.76171C19.3157 5.86063 20.6843 5.86063 21.4007 6.76171L23.0623 8.8516C23.4813 9.37853 24.1605 9.62576 24.8202 9.4914L27.4364 8.95853C28.5644 8.72877 29.6128 9.60846 29.5824 10.7592L29.5119 13.4283C29.4942 14.1012 29.8556 14.7272 30.4473 15.0483L32.7939 16.3218C33.8057 16.8708 34.0434 18.2186 33.2804 19.0806L31.5108 21.0799C31.0646 21.584 30.9391 22.2958 31.186 22.9221L32.165 25.4061C32.5872 26.4771 31.9029 27.6623 30.7643 27.8322L28.1236 28.2263C27.4578 28.3256 26.9041 28.7902 26.6906 29.4287L25.844 31.9609C25.479 33.0526 24.1929 33.5207 23.2115 32.919L20.9353 31.5235C20.3614 31.1716 19.6386 31.1716 19.0647 31.5235L16.7885 32.919C15.8071 33.5207 14.521 33.0526 14.156 31.9609L13.3094 29.4287C13.0959 28.7902 12.5422 28.3256 11.8764 28.2263L9.23565 27.8322C8.09709 27.6623 7.41281 26.4771 7.83495 25.4061L8.81403 22.9221C9.0609 22.2959 8.93538 21.584 8.4892 21.0799L6.7196 19.0806C5.95662 18.2186 6.19426 16.8708 7.20605 16.3218L9.55273 15.0483C10.1444 14.7272 10.5058 14.1012 10.4881 13.4283L10.4176 10.7592C10.3872 9.60846 11.4356 8.72877 12.5636 8.95853L15.1798 9.4914C15.8395 9.62576 16.5187 9.37853 16.9377 8.8516L18.5993 6.76171Z" fill="url(#paint0_linear)"/>
</g>
<g filter="url(#filter1_d)">
<path d="M16.9235 23.4027L17.874 24.0548L23.3451 16.7491L22.4167 16.0527L16.9235 23.4027ZM15.2656 18.1085C15.2656 19.3685 16.2383 20.1864 17.5977 20.1864C18.9572 20.1864 19.9298 19.3685 19.9298 18.1085C19.9298 16.8485 18.9572 16.0527 17.5977 16.0527C16.2383 16.0527 15.2656 16.8485 15.2656 18.1085ZM16.813 18.1085C16.813 17.6554 17.1335 17.3791 17.5977 17.3791C18.0619 17.3791 18.3825 17.6554 18.3825 18.1085C18.3825 18.5838 18.073 18.8601 17.5977 18.8601C17.1446 18.8601 16.813 18.5838 16.813 18.1085ZM20.383 21.9769C20.383 23.2369 21.3556 24.0548 22.7151 24.0548C24.0746 24.0548 25.0472 23.2369 25.0472 21.9769C25.0472 20.7169 24.0746 19.9212 22.7151 19.9212C21.3556 19.9212 20.383 20.7169 20.383 21.9769ZM21.9304 21.9769C21.9304 21.5238 22.2509 21.2475 22.7151 21.2475C23.1793 21.2475 23.4998 21.5238 23.4998 21.9769C23.4998 22.4522 23.1904 22.7285 22.7151 22.7285C22.2619 22.7285 21.9304 22.4522 21.9304 21.9769Z" fill="white"/>
</g>
<defs>
<filter id="filter0_d" x="0.00637293" y="0.717516" width="39.9867" height="39.6241" filterUnits="userSpaceOnUse" color-interpolation-filters="sRGB">
<feFlood flood-opacity="0" result="BackgroundImageFix"/>
<feColorMatrix in="SourceAlpha" type="matrix" values="0 0 0 0 0 0 0 0 0 0 0 0 0 0 0 0 0 0 127 0"/>
<feOffset dy="0.894737"/>
<feGaussianBlur stdDeviation="3.13158"/>
<feColorMatrix type="matrix" values="0 0 0 0 0 0 0 0 0 0 0 0 0 0 0 0 0 0 0.1 0"/>
<feBlend mode="normal" in2="BackgroundImageFix" result="effect1_dropShadow"/>
<feBlend mode="normal" in="SourceGraphic" in2="effect1_dropShadow" result="shape"/>
</filter>
<filter id="filter1_d" x="14.3709" y="16.0527" width="11.5711" height="9.79158" filterUnits="userSpaceOnUse" color-interpolation-filters="sRGB">
<feFlood flood-opacity="0" result="BackgroundImageFix"/>
<feColorMatrix in="SourceAlpha" type="matrix" values="0 0 0 0 0 0 0 0 0 0 0 0 0 0 0 0 0 0 127 0"/>
<feOffset dy="0.894737"/>
<feGaussianBlur stdDeviation="0.447368"/>
<feColorMatrix type="matrix" values="0 0 0 0 0 0 0 0 0 0 0 0 0 0 0 0 0 0 0.25 0"/>
<feBlend mode="normal" in2="BackgroundImageFix" result="effect1_dropShadow"/>
<feBlend mode="normal" in="SourceGraphic" in2="effect1_dropShadow" result="shape"/>
</filter>
<linearGradient id="paint0_linear" x1="12.1053" y1="5" x2="23.9474" y2="35" gradientUnits="userSpaceOnUse">
<stop stop-color="#FF0913"/>
<stop offset="1" stop-color="#DF0912"/>
</linearGradient>
</defs>
</svg>
