<svg width="24" height="24" viewBox="0 0 24 24" fill="none" xmlns="http://www.w3.org/2000/svg">
<path d="M11.8395 8.50786C11.8395 6.4605 9.99539 4.80078 7.72054 4.80078C5.44569 4.80078 3.60156 6.4605 3.60156 8.50786C3.60156 12.2149 5.24915 14.258 11.8395 19.2007" stroke="#282724" stroke-width="1.5" stroke-linecap="round" stroke-linejoin="round"/>
<path d="M11.8402 8.50786C11.8402 6.4605 13.6843 4.80078 15.9591 4.80078C18.234 4.80078 20.0781 6.4605 20.0781 8.50786C20.0781 10.5763 19.5652 11.2644 17.9668 13.4342C17.7332 13.7512 17.4765 14.0731 17.1948 14.4011C16.5016 15.2083 14.6732 16.9189 14.3116 17.2288C13.5774 17.858 12.7566 18.5134 11.8402 19.2007" stroke="#282724" stroke-width="1.5" stroke-linecap="round" stroke-linejoin="round"/>
</svg>
