<svg width="18" height="18" viewBox="0 0 18 18" fill="none" xmlns="http://www.w3.org/2000/svg">
<path fill-rule="evenodd" clip-rule="evenodd" d="M12.8813 4.70624C12.5425 4.36747 11.9933 4.36747 11.6545 4.70624L9.20092 7.15982C8.86215 7.49859 8.86215 8.04784 9.20092 8.38661C9.53969 8.72537 10.0889 8.72537 10.4277 8.38661L12.8813 5.93303C13.2201 5.59426 13.2201 5.04501 12.8813 4.70624ZM7.97413 9.61339C7.63536 9.27463 7.08611 9.27463 6.74734 9.61339L4.29376 12.067C3.95499 12.4057 3.95499 12.955 4.29376 13.2938C4.63253 13.6325 5.18178 13.6325 5.52055 13.2938L7.97413 10.8402C8.3129 10.5014 8.3129 9.95216 7.97413 9.61339ZM7.97413 7.15982L5.52055 4.70624C5.18178 4.36747 4.63253 4.36747 4.29376 4.70624C3.95499 5.04501 3.95499 5.59426 4.29376 5.93303L6.74734 8.38661C7.08611 8.72537 7.63536 8.72537 7.97413 8.38661C8.3129 8.04784 8.3129 7.49858 7.97413 7.15982ZM12.8813 12.067L10.4277 9.61339C10.0889 9.27463 9.53969 9.27463 9.20092 9.61339C8.86215 9.95216 8.86215 10.5014 9.20092 10.8402L11.6545 13.2938C11.9933 13.6325 12.5425 13.6325 12.8813 13.2938C13.2201 12.955 13.2201 12.4057 12.8813 12.067Z" fill="white"/>
</svg>
