<svg width="26" height="32" viewBox="0 0 26 32" fill="none" xmlns="http://www.w3.org/2000/svg">
<path d="M1 3.53906C1 2.43449 1.89543 1.53906 3 1.53906H7.59871C8.70328 1.53906 9.59871 2.43449 9.59871 3.53906V26.2603C9.59871 28.6348 7.67382 30.5597 5.29935 30.5597V30.5597C2.92489 30.5597 1 28.6348 1 26.2603V3.53906Z" stroke="#282724" stroke-width="1.5" stroke-linecap="round" stroke-linejoin="round"/>
<path d="M9.59956 4.84766L10.4314 2.84675C10.8555 1.82682 12.026 1.34375 13.046 1.76779L17.2923 3.5332C18.3122 3.95724 18.7953 5.12781 18.3713 6.14775L9.59956 27.2463" stroke="#282724" stroke-width="1.5" stroke-linecap="round" stroke-linejoin="round"/>
<path d="M18.1992 6.375L22.4865 10.365C23.2874 11.1104 23.3407 12.3609 22.6062 13.1718L9.29069 27.8718" stroke="#282724" stroke-width="1.5" stroke-linecap="round" stroke-linejoin="round"/>
<path d="M9.59871 5.83789H1M1 11.2121H9.59871M9.59871 16.0489H1" stroke="#282724" stroke-width="1.5" stroke-linecap="round" stroke-linejoin="round"/>
<path d="M17.4867 8.26974L9.54688 4.96875M15.4236 13.2321L9.54688 10.7889M13.5668 17.6983L9.59687 16.0478" stroke="#282724" stroke-width="1.5" stroke-linecap="round" stroke-linejoin="round"/>
<path d="M21.0401 14.894L16.5859 10.8594M17.4322 18.8771L14.4363 16.0488M14.185 22.4618L12.5918 21.0187" stroke="#282724" stroke-width="1.5" stroke-linecap="round" stroke-linejoin="round"/>
<circle cx="5.29811" cy="25.1868" r="2.14968" stroke="#ED1C24" stroke-width="1.3" stroke-linecap="round" stroke-linejoin="round"/>
</svg>
