<svg width="29" height="32" viewBox="0 0 29 32" fill="none" xmlns="http://www.w3.org/2000/svg">
<path d="M14.5684 22.8742V15.8401C14.5684 14.5207 13.4989 13.4512 12.1795 13.4512H6.18186C4.86251 13.4512 3.79297 14.5207 3.79297 15.8401V18.3372" stroke="#282724" stroke-width="1.5" stroke-linecap="round" stroke-linejoin="round"/>
<path d="M14.5683 22.8742V15.8401C14.5683 14.5207 15.6378 13.4512 16.9572 13.4512H22.9549C24.2742 13.4512 25.3438 14.5207 25.3438 15.8401V18.3372" stroke="#282724" stroke-width="1.5" stroke-linecap="round" stroke-linejoin="round"/>
<path d="M5.88672 25.6115C5.88672 24.2922 6.95626 23.2227 8.27561 23.2227H20.8607C22.1801 23.2227 23.2496 24.2922 23.2496 25.6115V28.8067H5.88672V25.6115Z" stroke="#282724" stroke-width="1.5" stroke-linecap="round" stroke-linejoin="round"/>
<path d="M1 19.9305C1 19.0509 1.71303 18.3379 2.59259 18.3379H4.29344C5.17301 18.3379 5.88604 19.0509 5.88604 19.9305V28.808H1.39815C1.17826 28.808 1 28.6297 1 28.4098V19.9305Z" stroke="#282724" stroke-width="1.5" stroke-linecap="round" stroke-linejoin="round"/>
<path d="M28.1328 26.5831V19.9305C28.1328 19.0509 27.4198 18.3379 26.5402 18.3379H24.8394C23.9598 18.3379 23.2468 19.0509 23.2468 19.9305V28.808H27.7347C27.9546 28.808 28.1328 28.6297 28.1328 28.4098V26.5395" stroke="#282724" stroke-width="1.5" stroke-linecap="round" stroke-linejoin="round"/>
<path d="M26.3906 29.1113V31.2508H24.9643L24.4888 29.1113" stroke="#282724" stroke-width="1.5" stroke-linecap="round" stroke-linejoin="round"/>
<path d="M2.74219 29.1113V31.2509H4.16855L4.644 29.1113" stroke="#282724" stroke-width="1.5" stroke-linecap="round" stroke-linejoin="round"/>
<path d="M10.3125 10.3144L12.6409 6.1233L14.9692 10.3144L17.2976 3.79492L19.626 10.3144" stroke="#ED1C24" stroke-width="1.5" stroke-linecap="round" stroke-linejoin="round"/>
<rect x="21.4883" y="1" width="9.3135" height="13.0389" transform="rotate(90 21.4883 1)" stroke="#282724" stroke-width="1.5" stroke-linecap="round" stroke-linejoin="round"/>
</svg>
