<svg width="38" height="33" viewBox="0 0 38 33" fill="none" xmlns="http://www.w3.org/2000/svg">
<path d="M15.5697 22.4868V14.758C15.5697 13.4387 14.5002 12.3691 13.1808 12.3691H6.38889C5.06954 12.3691 4 13.4387 4 14.758V17.6153" stroke="#282724" stroke-width="1.5" stroke-linecap="round" stroke-linejoin="round"/>
<path d="M15.567 22.4868V14.758C15.567 13.4387 16.6365 12.3691 17.9559 12.3691H24.7478C26.0672 12.3691 27.1367 13.4387 27.1367 14.758V17.6153" stroke="#282724" stroke-width="1.5" stroke-linecap="round" stroke-linejoin="round"/>
<path d="M6.24609 25.2502C6.24609 23.9309 7.31564 22.8613 8.63498 22.8613H22.4999C23.8193 22.8613 24.8888 23.9309 24.8888 25.2502V28.857H6.24609V25.2502Z" stroke="#282724" stroke-width="1.5" stroke-linecap="round" stroke-linejoin="round"/>
<path d="M1 19.2078C1 18.3283 1.71303 17.6152 2.59259 17.6152H4.65359C5.53316 17.6152 6.24619 18.3283 6.24619 19.2078V28.8571H1.39815C1.17826 28.8571 1 28.6788 1 28.4589V19.2078Z" stroke="#282724" stroke-width="1.5" stroke-linecap="round" stroke-linejoin="round"/>
<path d="M30.1328 26.4682V19.2078C30.1328 18.3283 29.4198 17.6152 28.5402 17.6152H26.4792C25.5997 17.6152 24.8866 18.3283 24.8866 19.2078V28.8571H29.7347C29.9546 28.8571 30.1328 28.6788 30.1328 28.4589V26.4213" stroke="#282724" stroke-width="1.5" stroke-linecap="round" stroke-linejoin="round"/>
<path d="M28.2617 29.1836V31.4808H26.7302L26.2197 29.1836" stroke="#282724" stroke-width="1.5" stroke-linecap="round" stroke-linejoin="round"/>
<path d="M2.87109 29.1836V31.4808H4.40259L4.91309 29.1836" stroke="#282724" stroke-width="1.5" stroke-linecap="round" stroke-linejoin="round"/>
<path d="M30.6484 1C30.6538 3.54095 30.7853 7.98762 36.8053 7.98762" stroke="#ED1C24" stroke-width="1.5" stroke-linecap="round" stroke-linejoin="round"/>
<path d="M30.6484 14.9746C30.6484 12.4337 30.7834 7.98699 36.8034 7.98699" stroke="#ED1C24" stroke-width="1.5" stroke-linecap="round" stroke-linejoin="round"/>
<path d="M30.6523 1C30.6523 3.54095 29.8301 7.98762 23.8101 7.98762" stroke="#ED1C24" stroke-width="1.5" stroke-linecap="round" stroke-linejoin="round"/>
<path d="M30.6484 14.9746C30.6484 12.4337 29.8254 7.98699 23.8053 7.98699" stroke="#ED1C24" stroke-width="1.5" stroke-linecap="round" stroke-linejoin="round"/>
</svg>
