<svg width="1072" height="226" viewBox="0 0 1072 226" fill="none" xmlns="http://www.w3.org/2000/svg">
<path d="M1071 120C1071 143.055 1041.53 164.578 990.5 182.807M1 120C1 143.055 30.4749 164.578 81.5 182.807M280.5 224.578C246.422 220.451 214.585 215.523 185.5 209.908M807 222.626C847.564 217.315 884.702 210.848 917.5 203.428M494 1.36133C465.13 1.86 436.903 2.86838 409.5 4.34606M578 1.36133C605.993 1.84485 633.381 2.80758 660 4.21267M312 11.9011C275.414 15.6582 241.06 20.3071 209.5 25.7226M161 35.1262C118.11 44.5028 82.2952 55.4754 55.5 67.6116M840 22.0649C814.816 18.1899 788.064 14.7831 760 11.9011M929.5 39.3755C973.988 50.1125 1009.71 62.6748 1034.13 76.5" stroke="#D3D3D3" stroke-linecap="round" stroke-linejoin="round" stroke-dasharray="5 5"/>
</svg>
