<svg width="70" height="70" viewBox="0 0 70 70" fill="none" xmlns="http://www.w3.org/2000/svg">
<rect opacity="0.6" width="70" height="70" fill="white"/>
<path d="M50.3551 34.5784V40.5578H47.5954M18.6797 34.5784V40.5578H21.4394M21.4394 40.5578V45.1573H24.1991L25.579 40.5578M21.4394 40.5578H25.579M25.579 40.5578H43.4558M47.5954 40.5578V45.1573H44.8357L43.4558 40.5578M47.5954 40.5578H43.4558M22.8193 30.4388V35.4182H34.5174M46.2156 30.4388V35.4182H34.5174M34.5174 35.4182V27.1406" stroke="#282724" stroke-width="2" stroke-linecap="round" stroke-linejoin="round"/>
<path d="M22.8192 30.6674C22.8192 28.5082 21.0688 26.7578 18.9096 26.7578C16.7504 26.7578 15 28.5082 15 30.6674C15 32.7494 16.6275 34.4513 18.6796 34.5704" stroke="#282724" stroke-width="2" stroke-linecap="round" stroke-linejoin="round"/>
<path d="M46.216 30.6674C46.216 28.5082 47.9663 26.7578 50.1256 26.7578C52.2848 26.7578 54.0352 28.5082 54.0352 30.6674C54.0352 32.7494 52.4077 34.4513 50.3555 34.5704" stroke="#282724" stroke-width="2" stroke-linecap="round" stroke-linejoin="round"/>
<path d="M21.4375 27.6796V27.6796C21.4375 25.6474 23.0849 24 25.1171 24H31.0659C32.1391 24 34.5155 24.6439 34.5155 27.2197" stroke="#282724" stroke-width="2" stroke-linecap="round" stroke-linejoin="round"/>
<path d="M47.5977 27.6796V27.6796C47.5977 25.6474 45.9502 24 43.918 24H37.9693C36.8961 24 34.5197 24.6439 34.5197 27.2197" stroke="#282724" stroke-width="2" stroke-linecap="round" stroke-linejoin="round"/>
</svg>
