<svg width="343" height="256" viewBox="0 0 343 256" fill="none" xmlns="http://www.w3.org/2000/svg">
<path fill-rule="evenodd" clip-rule="evenodd" d="M0 10C0 4.47715 4.47715 0 10 0H333C338.523 0 343 4.47715 343 10V246C343 251.523 338.523 256 333 256H328C328 251.582 324.418 248 320 248C315.582 248 312 251.582 312 256H301C301 251.582 297.418 248 293 248C288.582 248 285 251.582 285 256H274C274 251.582 270.418 248 266 248C261.582 248 258 251.582 258 256H247C247 251.582 243.418 248 239 248C234.582 248 231 251.582 231 256H220C220 251.582 216.418 248 212 248C207.582 248 204 251.582 204 256H193C193 251.582 189.418 248 185 248C180.582 248 177 251.582 177 256H166C166 251.582 162.418 248 158 248C153.582 248 150 251.582 150 256H139C139 251.582 135.418 248 131 248C126.582 248 123 251.582 123 256H112C112 251.582 108.418 248 104 248C99.5817 248 96 251.582 96 256H85C85 251.582 81.4183 248 77 248C72.5817 248 69 251.582 69 256H58C58 251.582 54.4183 248 50 248C45.5817 248 42 251.582 42 256H31C31 251.582 27.4183 248 23 248C18.5817 248 15 251.582 15 256H10C4.47716 256 0 251.523 0 246V10Z" fill="#F5F6FA"/>
</svg>
