<svg width="307" height="355" viewBox="0 0 307 355" fill="none" xmlns="http://www.w3.org/2000/svg">
<path fill-rule="evenodd" clip-rule="evenodd" d="M10 0C4.47715 0 0 4.47716 0 10V345C0 350.523 4.47715 355 10 355H11C11 350.582 14.5817 347 19 347C23.4183 347 27 350.582 27 355H38C38 350.582 41.5817 347 46 347C50.4183 347 54 350.582 54 355H65C65 350.582 68.5817 347 73 347C77.4183 347 81 350.582 81 355H92C92 350.582 95.5817 347 100 347C104.418 347 108 350.582 108 355H119C119 350.582 122.582 347 127 347C131.418 347 135 350.582 135 355H146C146 350.582 149.582 347 154 347C158.418 347 162 350.582 162 355H173C173 350.582 176.582 347 181 347C185.418 347 189 350.582 189 355H200C200 350.582 203.582 347 208 347C212.418 347 216 350.582 216 355H227C227 350.582 230.582 347 235 347C239.418 347 243 350.582 243 355H254C254 350.582 257.582 347 262 347C266.418 347 270 350.582 270 355H281C281 350.582 284.582 347 289 347C293.418 347 297 350.582 297 355C302.523 355 307 350.523 307 345V10C307 4.47715 302.523 0 297 0H10Z" fill="#F5F6FA"/>
</svg>
