<svg width="10" height="10" viewBox="0 0 10 10" fill="none" xmlns="http://www.w3.org/2000/svg">
<path fill-rule="evenodd" clip-rule="evenodd" d="M9.47532 8.40922C9.55334 8.21419 9.64437 7.91516 9.67036 7.36913L9.67111 7.3523C9.69653 6.77612 9.705 6.58339 9.705 5.10252C9.705 3.62725 9.69659 3.43465 9.67142 2.85939L9.67036 2.8359C9.64437 2.28987 9.55334 1.99514 9.47532 1.79581C9.37133 1.53143 9.25001 1.34509 9.05498 1.15007C8.85994 0.955049 8.66927 0.829368 8.40919 0.729696C8.21422 0.651683 7.91519 0.560672 7.3691 0.53467C6.7797 0.504337 6.59769 0.5 5.10249 0.5C3.62722 0.5 3.43462 0.508437 2.85943 0.533642H2.85936L2.83593 0.53467C2.28984 0.560672 1.99518 0.651683 1.79578 0.729696C1.53146 0.833705 1.34509 0.955049 1.15007 1.15007C0.955049 1.34509 0.829368 1.53579 0.72969 1.79581C0.651683 1.99085 0.560672 2.28987 0.53467 2.8359C0.504331 3.4253 0.5 3.60737 0.5 5.10252C0.5 6.57783 0.508437 6.77038 0.533641 7.34562L0.533642 7.34564L0.53467 7.36913C0.560672 7.91516 0.651683 8.20989 0.72969 8.40922C0.833705 8.6736 0.955049 8.85991 1.15007 9.05494C1.34509 9.24998 1.53576 9.37566 1.79578 9.47535C1.99081 9.55337 2.28984 9.64434 2.83593 9.67039C3.42533 9.70067 3.60304 9.70503 5.10249 9.70503C6.57763 9.70503 6.7694 9.69662 7.34045 9.67158L7.34081 9.67157L7.3691 9.67039C7.91519 9.64434 8.20986 9.55337 8.40919 9.47535C8.67357 9.37129 8.85994 9.24998 9.05498 9.05494C9.25001 8.85991 9.37569 8.66924 9.47532 8.40922ZM5.10465 2.2207C3.51411 2.2207 2.22266 3.51215 2.22266 5.1027C2.22266 6.69318 3.51411 7.98469 5.10465 7.98469C6.69513 7.98469 7.98658 6.69318 7.98658 5.1027C7.98658 3.51215 6.69513 2.2207 5.10465 2.2207ZM8.09755 2.78098C8.46855 2.78098 8.76926 2.48027 8.76926 2.10927C8.76926 1.73827 8.46855 1.4375 8.09755 1.4375C7.72655 1.4375 7.42578 1.73827 7.42578 2.10927C7.42578 2.48027 7.72655 2.78098 8.09755 2.78098Z" fill="#1C1C1C"/>
<path fill-rule="evenodd" clip-rule="evenodd" d="M5.10272 6.97289C4.07123 6.97289 3.23047 6.13649 3.23047 5.1007C3.23047 4.06927 4.06693 3.22852 5.10272 3.22852C6.13845 3.22852 6.9749 4.06491 6.9749 5.1007C6.9749 6.13213 6.13415 6.97289 5.10272 6.97289Z" fill="#1C1C1C"/>
</svg>
