<svg width="8" height="12" viewBox="0 0 8 12" fill="none" xmlns="http://www.w3.org/2000/svg">
<path fill-rule="evenodd" clip-rule="evenodd" d="M6.96914 6.00195C6.83604 6.00195 6.65794 6.09081 6.42111 6.20929C5.94682 6.44631 5.23633 6.80181 4.16965 6.80181C3.10297 6.80181 2.39248 6.44631 1.91819 6.20929C1.68136 6.09081 1.50327 6.00195 1.37017 6.00195C0.930246 6.00195 0.570312 6.36189 0.570312 6.80181C0.570312 7.20173 0.810268 7.4017 0.970239 7.48168C1.45015 7.76163 2.96987 8.40151 2.96987 8.40151L1.25019 10.5611C1.25019 10.5611 0.930246 10.921 0.930246 11.201C0.930246 11.6409 1.29018 12.0009 1.7301 12.0009C2.13003 12.0009 2.32999 11.7209 2.32999 11.7209L4.16965 9.60129L5.96932 11.7209C5.96932 11.7209 6.16928 12.0009 6.56921 12.0009C7.00913 12.0009 7.36906 11.6409 7.36906 11.201C7.36906 10.961 7.04912 10.5611 7.04912 10.5611L5.36943 8.40151C5.36943 8.40151 6.88915 7.76163 7.36906 7.48168L7.39093 7.46537C7.55028 7.34696 7.76899 7.18386 7.76899 6.80181C7.76899 6.36189 7.40906 6.00195 6.96914 6.00195Z" fill="#1C1C1C"/>
<path fill-rule="evenodd" clip-rule="evenodd" d="M4.16667 0C2.60696 0 1.36719 1.23977 1.36719 2.79948C1.36719 4.3592 2.60696 5.59897 4.16667 5.59897C5.72639 5.59897 6.96616 4.3592 6.96616 2.79948C6.96616 1.23977 5.72639 0 4.16667 0ZM4.16537 4.19988C3.40551 4.19988 2.76562 3.55999 2.76562 2.80013C2.76562 2.04027 3.40551 1.40039 4.16537 1.40039C4.92523 1.40039 5.56511 2.04027 5.56511 2.80013C5.56511 3.55999 4.92523 4.19988 4.16537 4.19988Z" fill="#1C1C1C"/>
</svg>
