<svg width="11" height="9" viewBox="0 0 11 9" fill="none" xmlns="http://www.w3.org/2000/svg">
<path fill-rule="evenodd" clip-rule="evenodd" d="M5.51672 2.82814C5.45447 1.93765 6.00234 1.124 6.86931 0.808525C7.1884 0.696306 7.72963 0.682403 8.08355 0.78039C8.22258 0.822429 8.48575 0.962789 8.67307 1.08893L9.01308 1.32063L9.38747 1.20115C9.59565 1.13821 9.87309 1.03294 9.99785 0.962789C10.116 0.899561 10.22 0.864802 10.22 0.885657C10.22 1.00483 9.96309 1.41168 9.74828 1.63612C9.45662 1.95155 9.54004 1.97973 10.1296 1.7692C10.4832 1.65003 10.4904 1.65003 10.4209 1.78341C10.3792 1.85361 10.1644 2.0989 9.93529 2.32334C9.54699 2.70897 9.52613 2.75099 9.52613 3.07374C9.52613 3.57128 9.29046 4.60943 9.05442 5.17711C8.61715 6.24338 7.68097 7.3444 6.74449 7.89855C5.42666 8.67676 3.67156 8.87339 2.19415 8.41756C1.70195 8.26301 0.855469 7.87037 0.855469 7.80054C0.855469 7.77938 1.11206 7.7512 1.42451 7.74425C2.07666 7.73071 2.72881 7.54861 3.28357 7.22554L3.65797 7.0011L3.22796 6.85413C2.61758 6.64359 2.06971 6.15965 1.93098 5.70382C1.88928 5.55616 1.90318 5.54921 2.29148 5.54921L2.69368 5.54225L2.35373 5.38106C1.95122 5.17748 1.58378 4.83418 1.40334 4.48331C1.27157 4.23069 1.10542 3.59282 1.15377 3.54348C1.16767 3.52262 1.31328 3.5647 1.47981 3.62063C1.95817 3.79609 2.02074 3.75401 1.74329 3.45944C1.22328 2.92646 1.06371 2.13397 1.31328 1.38351L1.43115 1.04685L1.88896 1.50268C2.82545 2.42166 3.92846 2.96848 5.19068 3.12973L5.53758 3.17175L5.51672 2.82814Z" fill="#1C1C1C"/>
</svg>
