<svg width="12" height="7" viewBox="0 0 12 7" fill="none" xmlns="http://www.w3.org/2000/svg">
<path fill-rule="evenodd" clip-rule="evenodd" d="M4.73435 0.00370876C5.30037 0.00370876 5.70178 0.00295792 6.33134 1.2299e-05C6.46706 -0.00062303 6.6438 0.0232307 6.75527 0.100741C6.75816 0.102589 6.76105 0.104495 6.76336 0.106343C6.8448 0.162368 6.94645 0.232485 6.94761 0.481476C6.94934 0.81179 6.94876 1.12535 6.94818 1.43638C6.94703 1.9183 6.94645 2.39411 6.95396 2.91658C6.97071 3.09551 7.08738 3.17031 7.19712 3.16979C7.30685 3.16927 7.43277 3.10053 7.52691 3.00806C8.03748 2.50702 8.62487 1.3018 8.98528 0.511972C9.11177 0.234275 9.31161 0.234911 9.53917 0.235604C9.55303 0.235604 9.56747 0.235662 9.58133 0.235662C10.0775 0.234911 10.3951 0.23855 10.7388 0.242535C10.9629 0.245134 11.1985 0.247791 11.5018 0.249523C11.6427 0.250274 11.7651 0.36885 11.805 0.454677C11.8391 0.528837 11.8633 0.744041 11.6762 1.04796C11.1009 1.98293 10.5719 2.73562 9.93134 3.62445C9.89149 3.68053 9.85279 3.74759 9.85395 3.81667C9.8551 3.87985 9.88802 3.94188 9.93134 3.98768C10.0688 4.13185 10.2074 4.27636 10.3466 4.42179C10.7879 4.88211 11.239 5.35214 11.6831 5.8544C11.8552 6.04915 11.7478 6.34967 11.7004 6.43388C11.6646 6.49764 11.5029 6.66127 11.3938 6.66213C11.1772 6.66387 11.0778 6.66369 10.763 6.66317C10.5008 6.66277 10.0879 6.66213 9.33182 6.66213C9.08578 6.66213 8.98701 6.59017 8.85706 6.45328C8.41059 5.98458 8.35284 5.92255 8.05654 5.60523C7.96991 5.51236 7.86248 5.39765 7.71924 5.24448C7.63723 5.15658 7.47377 5.04568 7.31841 5.11603C7.30859 5.12025 7.29877 5.12464 7.28837 5.1292C7.15264 5.18903 6.94414 5.28127 6.94414 5.50693V6.35625C6.94414 6.5104 6.70214 6.62517 6.55659 6.62517H5.42455C4.89203 6.62517 4.43055 6.497 4.17526 6.37288C3.07383 5.838 2.41886 5.09339 1.70325 3.85363C1.0916 2.79506 0.559661 1.75213 0.0359767 0.659831C-0.0225891 0.53779 -0.0645786 0.269854 0.372528 0.269854C0.579298 0.269854 0.780293 0.267832 1.00208 0.26558C1.27585 0.262808 1.58139 0.259689 1.96951 0.259689C2.17513 0.259689 2.30393 0.301216 2.39056 0.364114C2.47316 0.423719 2.51474 0.502038 2.55517 0.577238C2.55748 0.581339 2.55921 0.585497 2.56152 0.589598C2.74057 0.922915 2.88323 1.19212 3.00163 1.41639C3.46196 2.2865 3.56477 2.48103 4.06032 3.12266C4.11924 3.19843 4.20414 3.2101 4.26652 3.21045C4.34391 3.21091 4.41553 3.19797 4.4756 3.14945C4.60151 3.04763 4.63732 2.93881 4.63732 2.78258V1.13852C4.63732 0.95006 4.5091 0.671035 4.36759 0.583129C4.3312 0.562279 4.28904 0.541428 4.2463 0.520289C4.11635 0.455659 3.98062 0.388314 3.98639 0.309591C3.99506 0.195289 4.26074 0.00370876 4.73435 0.00370876Z" fill="#1C1C1C"/>
</svg>
