<svg width="24" height="24" viewBox="0 0 24 24" fill="none" xmlns="http://www.w3.org/2000/svg">
<path d="M11.8828 7.49641C13.2554 7.39837 16.0005 8.08464 16.0005 11.6141M11.8828 4.84936C14.1377 4.65327 18.6475 5.73168 18.6475 11.6141" stroke="#282724" stroke-width="1.4" stroke-linecap="round" stroke-linejoin="round"/>
<path d="M15.7063 19.2606C7.471 17.4959 3.94129 10.437 4.2357 7.49583C4.52953 6.02525 6.29453 4.55465 6.88277 4.26053C8.05924 3.6723 9.82395 7.49583 9.82395 8.08407C9.82395 8.67232 8.21761 9.26056 8.35336 9.84879C8.40461 10.1563 8.48042 10.4504 8.57671 10.7311C8.76652 11.2057 9.28171 12.2892 9.82395 12.8271C11.1937 14.371 13.0639 15.1429 13.6475 15.1429C14.2357 15.1429 14.6475 14.1429 15.1181 13.6723C15.7063 13.0841 19.2357 15.5217 19.2357 16.0253C19.2357 16.9664 16.5887 19.4163 15.7063 19.2606Z" stroke="#282724" stroke-width="1.4" stroke-linecap="round" stroke-linejoin="round"/>
</svg>
