<svg width="23" height="23" viewBox="0 0 23 23" fill="none" xmlns="http://www.w3.org/2000/svg">
<path d="M11.5029 0H11.4971C5.15631 0 0 5.15775 0 11.5C0 14.0156 0.81075 16.3472 2.18931 18.2404L0.756125 22.5127L5.17644 21.0996C6.99487 22.3043 9.16406 23 11.5029 23C17.8437 23 23 17.8408 23 11.5C23 5.15919 17.8437 0 11.5029 0Z" fill="#4CAF50"/>
<path d="M18.1923 16.2374C17.9149 17.0209 16.8138 17.6706 15.9355 17.8604C15.3346 17.9883 14.5497 18.0904 11.9076 16.995C8.52803 15.5949 6.35166 12.1607 6.18203 11.9379C6.01959 11.7151 4.81641 10.1194 4.81641 8.46919C4.81641 6.81894 5.65447 6.01538 5.99228 5.67038C6.26972 5.38719 6.72828 5.25781 7.16816 5.25781C7.31047 5.25781 7.43841 5.265 7.55341 5.27075C7.89122 5.28513 8.06084 5.30525 8.28366 5.83856C8.56109 6.507 9.23672 8.15725 9.31722 8.32688C9.39916 8.4965 9.48109 8.7265 9.36609 8.94931C9.25828 9.17931 9.16341 9.28138 8.99378 9.47688C8.82416 9.67238 8.66316 9.82188 8.49353 10.0318C8.33828 10.2143 8.16291 10.4098 8.35841 10.7476C8.55391 11.0783 9.22953 12.1808 10.2243 13.0663C11.508 14.2091 12.5487 14.5743 12.921 14.7295C13.1985 14.8445 13.5291 14.8172 13.7318 14.6016C13.9891 14.3241 14.3068 13.8641 14.6302 13.4113C14.8602 13.0864 15.1506 13.0462 15.4553 13.1612C15.7658 13.269 17.4089 14.0812 17.7467 14.2494C18.0845 14.419 18.3073 14.4995 18.3893 14.6418C18.4698 14.7841 18.4698 15.4526 18.1923 16.2374Z" fill="#FAFAFA"/>
</svg>
