<svg xmlns="http://www.w3.org/2000/svg">
<symbol id="insta-footer" viewBox="0 0 10 10">
  <path fill-rule="evenodd" clip-rule="evenodd" d="M9.47532 8.40922C9.55334 8.21419 9.64437 7.91516 9.67036 7.36913L9.67111 7.3523C9.69653 6.77612 9.705 6.58339 9.705 5.10252C9.705 3.62725 9.69659 3.43465 9.67142 2.85939L9.67036 2.8359C9.64437 2.28987 9.55334 1.99514 9.47532 1.79581C9.37133 1.53143 9.25001 1.34509 9.05498 1.15007C8.85994 0.955049 8.66927 0.829368 8.40919 0.729696C8.21422 0.651683 7.91519 0.560672 7.3691 0.53467C6.7797 0.504337 6.59769 0.5 5.10249 0.5C3.62722 0.5 3.43462 0.508437 2.85943 0.533642H2.85936L2.83593 0.53467C2.28984 0.560672 1.99518 0.651683 1.79578 0.729696C1.53146 0.833705 1.34509 0.955049 1.15007 1.15007C0.955049 1.34509 0.829368 1.53579 0.72969 1.79581C0.651683 1.99085 0.560672 2.28987 0.53467 2.8359C0.504331 3.4253 0.5 3.60737 0.5 5.10252C0.5 6.57783 0.508437 6.77038 0.533641 7.34562L0.533642 7.34564L0.53467 7.36913C0.560672 7.91516 0.651683 8.20989 0.72969 8.40922C0.833705 8.6736 0.955049 8.85991 1.15007 9.05494C1.34509 9.24998 1.53576 9.37566 1.79578 9.47535C1.99081 9.55337 2.28984 9.64434 2.83593 9.67039C3.42533 9.70067 3.60304 9.70503 5.10249 9.70503C6.57763 9.70503 6.7694 9.69662 7.34045 9.67158L7.34081 9.67157L7.3691 9.67039C7.91519 9.64434 8.20986 9.55337 8.40919 9.47535C8.67357 9.37129 8.85994 9.24998 9.05498 9.05494C9.25001 8.85991 9.37569 8.66924 9.47532 8.40922ZM5.10465 2.2207C3.51411 2.2207 2.22266 3.51215 2.22266 5.1027C2.22266 6.69318 3.51411 7.98469 5.10465 7.98469C6.69513 7.98469 7.98658 6.69318 7.98658 5.1027C7.98658 3.51215 6.69513 2.2207 5.10465 2.2207ZM8.09755 2.78098C8.46855 2.78098 8.76926 2.48027 8.76926 2.10927C8.76926 1.73827 8.46855 1.4375 8.09755 1.4375C7.72655 1.4375 7.42578 1.73827 7.42578 2.10927C7.42578 2.48027 7.72655 2.78098 8.09755 2.78098Z"/>
  <path fill-rule="evenodd" clip-rule="evenodd" d="M5.10272 6.97289C4.07123 6.97289 3.23047 6.13649 3.23047 5.1007C3.23047 4.06927 4.06693 3.22852 5.10272 3.22852C6.13845 3.22852 6.9749 4.06491 6.9749 5.1007C6.9749 6.13213 6.13415 6.97289 5.10272 6.97289Z"/>
</symbol>

<symbol id="fb-footer" viewBox="0 0 12 12">
  <path fill-rule="evenodd" clip-rule="evenodd" d="M4.66774 12H7.14729V5.99924H8.8017L9.02022 3.93164H7.14729L7.15004 2.89632C7.15004 2.35733 7.20174 2.06801 7.97518 2.06801H9.0085V0H7.35409C5.36742 0 4.66774 1.00331 4.66774 2.69007V3.93164H3.42969V5.99966H4.66774V12Z"/>
</symbol>

<symbol id="vk-footer" viewBox="0 0 12 7">
  <path fill-rule="evenodd" clip-rule="evenodd" d="M4.73435 0.00370876C5.30037 0.00370876 5.70178 0.00295792 6.33134 1.2299e-05C6.46706 -0.00062303 6.6438 0.0232307 6.75527 0.100741C6.75816 0.102589 6.76105 0.104495 6.76336 0.106343C6.8448 0.162368 6.94645 0.232485 6.94761 0.481476C6.94934 0.81179 6.94876 1.12535 6.94818 1.43638C6.94703 1.9183 6.94645 2.39411 6.95396 2.91658C6.97071 3.09551 7.08738 3.17031 7.19712 3.16979C7.30685 3.16927 7.43277 3.10053 7.52691 3.00806C8.03748 2.50702 8.62487 1.3018 8.98528 0.511972C9.11177 0.234275 9.31161 0.234911 9.53917 0.235604C9.55303 0.235604 9.56747 0.235662 9.58133 0.235662C10.0775 0.234911 10.3951 0.23855 10.7388 0.242535C10.9629 0.245134 11.1985 0.247791 11.5018 0.249523C11.6427 0.250274 11.7651 0.36885 11.805 0.454677C11.8391 0.528837 11.8633 0.744041 11.6762 1.04796C11.1009 1.98293 10.5719 2.73562 9.93134 3.62445C9.89149 3.68053 9.85279 3.74759 9.85395 3.81667C9.8551 3.87985 9.88802 3.94188 9.93134 3.98768C10.0688 4.13185 10.2074 4.27636 10.3466 4.42179C10.7879 4.88211 11.239 5.35214 11.6831 5.8544C11.8552 6.04915 11.7478 6.34967 11.7004 6.43388C11.6646 6.49764 11.5029 6.66127 11.3938 6.66213C11.1772 6.66387 11.0778 6.66369 10.763 6.66317C10.5008 6.66277 10.0879 6.66213 9.33182 6.66213C9.08578 6.66213 8.98701 6.59017 8.85706 6.45328C8.41059 5.98458 8.35284 5.92255 8.05654 5.60523C7.96991 5.51236 7.86248 5.39765 7.71924 5.24448C7.63723 5.15658 7.47377 5.04568 7.31841 5.11603C7.30859 5.12025 7.29877 5.12464 7.28837 5.1292C7.15264 5.18903 6.94414 5.28127 6.94414 5.50693V6.35625C6.94414 6.5104 6.70214 6.62517 6.55659 6.62517H5.42455C4.89203 6.62517 4.43055 6.497 4.17526 6.37288C3.07383 5.838 2.41886 5.09339 1.70325 3.85363C1.0916 2.79506 0.559661 1.75213 0.0359767 0.659831C-0.0225891 0.53779 -0.0645786 0.269854 0.372528 0.269854C0.579298 0.269854 0.780293 0.267832 1.00208 0.26558C1.27585 0.262808 1.58139 0.259689 1.96951 0.259689C2.17513 0.259689 2.30393 0.301216 2.39056 0.364114C2.47316 0.423719 2.51474 0.502038 2.55517 0.577238C2.55748 0.581339 2.55921 0.585497 2.56152 0.589598C2.74057 0.922915 2.88323 1.19212 3.00163 1.41639C3.46196 2.2865 3.56477 2.48103 4.06032 3.12266C4.11924 3.19843 4.20414 3.2101 4.26652 3.21045C4.34391 3.21091 4.41553 3.19797 4.4756 3.14945C4.60151 3.04763 4.63732 2.93881 4.63732 2.78258V1.13852C4.63732 0.95006 4.5091 0.671035 4.36759 0.583129C4.3312 0.562279 4.28904 0.541428 4.2463 0.520289C4.11635 0.455659 3.98062 0.388314 3.98639 0.309591C3.99506 0.195289 4.26074 0.00370876 4.73435 0.00370876Z"/>
</symbol>

<symbol id="tw-footer" viewBox="0 0 11 9">
  <path fill-rule="evenodd" clip-rule="evenodd" d="M5.51672 2.82814C5.45447 1.93765 6.00234 1.124 6.86931 0.808525C7.1884 0.696306 7.72963 0.682403 8.08355 0.78039C8.22258 0.822429 8.48575 0.962789 8.67307 1.08893L9.01308 1.32063L9.38747 1.20115C9.59565 1.13821 9.87309 1.03294 9.99785 0.962789C10.116 0.899561 10.22 0.864802 10.22 0.885657C10.22 1.00483 9.96309 1.41168 9.74828 1.63612C9.45662 1.95155 9.54004 1.97973 10.1296 1.7692C10.4832 1.65003 10.4904 1.65003 10.4209 1.78341C10.3792 1.85361 10.1644 2.0989 9.93529 2.32334C9.54699 2.70897 9.52613 2.75099 9.52613 3.07374C9.52613 3.57128 9.29046 4.60943 9.05442 5.17711C8.61715 6.24338 7.68097 7.3444 6.74449 7.89855C5.42666 8.67676 3.67156 8.87339 2.19415 8.41756C1.70195 8.26301 0.855469 7.87037 0.855469 7.80054C0.855469 7.77938 1.11206 7.7512 1.42451 7.74425C2.07666 7.73071 2.72881 7.54861 3.28357 7.22554L3.65797 7.0011L3.22796 6.85413C2.61758 6.64359 2.06971 6.15965 1.93098 5.70382C1.88928 5.55616 1.90318 5.54921 2.29148 5.54921L2.69368 5.54225L2.35373 5.38106C1.95122 5.17748 1.58378 4.83418 1.40334 4.48331C1.27157 4.23069 1.10542 3.59282 1.15377 3.54348C1.16767 3.52262 1.31328 3.5647 1.47981 3.62063C1.95817 3.79609 2.02074 3.75401 1.74329 3.45944C1.22328 2.92646 1.06371 2.13397 1.31328 1.38351L1.43115 1.04685L1.88896 1.50268C2.82545 2.42166 3.92846 2.96848 5.19068 3.12973L5.53758 3.17175L5.51672 2.82814Z"/>
</symbol>

<symbol id="ok-footer" viewBox="0 0 8 12">
  <path fill-rule="evenodd" clip-rule="evenodd" d="M6.96914 6.00195C6.83604 6.00195 6.65794 6.09081 6.42111 6.20929C5.94682 6.44631 5.23633 6.80181 4.16965 6.80181C3.10297 6.80181 2.39248 6.44631 1.91819 6.20929C1.68136 6.09081 1.50327 6.00195 1.37017 6.00195C0.930246 6.00195 0.570312 6.36189 0.570312 6.80181C0.570312 7.20173 0.810268 7.4017 0.970239 7.48168C1.45015 7.76163 2.96987 8.40151 2.96987 8.40151L1.25019 10.5611C1.25019 10.5611 0.930246 10.921 0.930246 11.201C0.930246 11.6409 1.29018 12.0009 1.7301 12.0009C2.13003 12.0009 2.32999 11.7209 2.32999 11.7209L4.16965 9.60129L5.96932 11.7209C5.96932 11.7209 6.16928 12.0009 6.56921 12.0009C7.00913 12.0009 7.36906 11.6409 7.36906 11.201C7.36906 10.961 7.04912 10.5611 7.04912 10.5611L5.36943 8.40151C5.36943 8.40151 6.88915 7.76163 7.36906 7.48168L7.39093 7.46537C7.55028 7.34696 7.76899 7.18386 7.76899 6.80181C7.76899 6.36189 7.40906 6.00195 6.96914 6.00195Z"/>
  <path fill-rule="evenodd" clip-rule="evenodd" d="M4.16667 0C2.60696 0 1.36719 1.23977 1.36719 2.79948C1.36719 4.3592 2.60696 5.59897 4.16667 5.59897C5.72639 5.59897 6.96616 4.3592 6.96616 2.79948C6.96616 1.23977 5.72639 0 4.16667 0ZM4.16537 4.19988C3.40551 4.19988 2.76562 3.55999 2.76562 2.80013C2.76562 2.04027 3.40551 1.40039 4.16537 1.40039C4.92523 1.40039 5.56511 2.04027 5.56511 2.80013C5.56511 3.55999 4.92523 4.19988 4.16537 4.19988Z"/>
  </symbol>
</svg>