<svg width="24" height="24" viewBox="0 0 24 24" fill="none" xmlns="http://www.w3.org/2000/svg">
<path d="M23.25 22.5C23.25 22.9142 22.9142 23.25 22.5 23.25C19.4173 23.2498 16.4379 22.1384 14.1082 20.1196L13.3194 19.436C12.8809 19.4786 12.4406 19.4999 12 19.5C9.02217 19.5 6.21633 18.5423 4.09931 16.8033C1.93945 15.0292 0.75 12.6574 0.75 10.125C0.75 7.59258 1.93945 5.2208 4.09931 3.44667C6.21633 1.7077 9.02217 0.75 12 0.75C14.9778 0.75 17.7837 1.7077 19.9007 3.44667C22.0605 5.2208 23.25 7.59258 23.25 10.125C23.2489 11.4712 22.9092 12.7954 22.262 13.9758C21.7002 15.0039 20.9521 15.9185 20.0558 16.6729C20.7257 18.3761 21.738 19.9237 23.0303 21.2197C23.171 21.3604 23.25 21.5511 23.25 21.75V22.5Z" fill="white"/>
</svg>
