<svg width="24" height="22" viewBox="0 0 24 22" fill="none" xmlns="http://www.w3.org/2000/svg">
<path d="M22.0118 2.78466C19.4018 0.301039 15.1537 0.301039 12.5429 2.7841L12 3.29973L11.4578 2.78434C8.84667 0.300945 4.59909 0.301226 1.98802 2.78434C0.705984 4.00374 0 5.62116 0 7.3382C0 9.05579 0.705984 10.6729 1.9882 11.8929L11.4203 20.8475C11.5826 21.0019 11.7915 21.0788 12 21.0788C12.2085 21.0788 12.4171 21.0016 12.5797 20.8472L22.0118 11.8929C23.2937 10.6732 24 9.05584 24 7.33848C24 5.62116 23.2937 4.00402 22.0118 2.78466ZM20.8514 10.6718L12 19.0755L3.14892 10.6721C2.20434 9.77387 1.68422 8.58985 1.68422 7.33848C1.68422 6.0871 2.20434 4.90309 3.14892 4.00487C4.13419 3.06732 5.42822 2.59885 6.72253 2.59885C8.01713 2.59885 9.31172 3.06788 10.297 4.00543L11.4198 5.07184C11.7448 5.38088 12.2549 5.38088 12.5799 5.07184L13.703 4.00487C15.6738 2.13005 18.8803 2.13005 20.8511 4.00487C21.7954 4.90313 22.3158 6.0871 22.3158 7.33848C22.3158 8.58985 21.7954 9.77359 20.8514 10.6718Z" fill="white"/>
</svg>
