<svg width="20" height="20" viewBox="0 0 20 20" fill="none" xmlns="http://www.w3.org/2000/svg">
<path d="M15.866 2.5H12.6507C12.2243 2.5 11.8153 2.67559 11.5138 2.98816C11.2123 3.30072 11.043 3.72464 11.043 4.16667V14.1667C11.043 15.0507 11.3817 15.8986 11.9847 16.5237C12.5877 17.1488 13.4056 17.5 14.2583 17.5C15.1111 17.5 15.929 17.1488 16.532 16.5237C17.135 15.8986 17.4737 15.0507 17.4737 14.1667V4.16667C17.4737 3.72464 17.3043 3.30072 17.0028 2.98816C16.7013 2.67559 16.2924 2.5 15.866 2.5Z" stroke="white" stroke-width="1.5" stroke-linecap="round" stroke-linejoin="round"/>
<path d="M11.0429 6.12535L9.43522 4.45868C9.13373 4.14623 8.72489 3.9707 8.29858 3.9707C7.87228 3.9707 7.46343 4.14623 7.16195 4.45868L4.88868 6.81535C4.58728 7.12789 4.41797 7.55174 4.41797 7.99368C4.41797 8.43562 4.58728 8.85947 4.88868 9.17201L12.1233 16.672" stroke="white" stroke-width="1.5" stroke-linecap="round" stroke-linejoin="round"/>
<path d="M6.46043 10.834H4.61159C4.18521 10.834 3.77629 11.0096 3.47479 11.3221C3.17329 11.6347 3.00391 12.0586 3.00391 12.5007V15.834C3.00391 16.276 3.17329 16.6999 3.47479 17.0125C3.77629 17.3251 4.18521 17.5007 4.61159 17.5007H14.2577" stroke="white" stroke-width="1.5" stroke-linecap="round" stroke-linejoin="round"/>
<path d="M14.2617 14.166V14.1753" stroke="white" stroke-width="1.5" stroke-linecap="round" stroke-linejoin="round"/>
</svg>
